<?xml version="1.0" encoding="UTF-8"?>
<svg xmlns="http://www.w3.org/2000/svg" id="Ebene_1" data-name="Ebene 1" viewBox="0 0 37.45 51.45">
  <defs>
    <style>
      .cls-1 {
        fill: #fff;
      }

      .cls-1, .cls-2, .cls-3 {
        stroke-width: 0px;
      }

      .cls-2 {
        fill: #f49712;
      }

      .cls-4 {
        fill: none;
        stroke: #1d1d1b;
        stroke-miterlimit: 2.61;
        stroke-width: 1.37px;
      }

      .cls-3 {
        fill: #1d1d1b;
      }
    </style>
  </defs>
  <polygon class="cls-3" points="0 0 0 51.45 37.45 51.45 37.45 0 0 0 0 0"></polygon>
  <polygon class="cls-2" points="36.3 34.02 1.16 34.02 1.16 1.13 36.3 1.13 36.3 34.02 36.3 34.02"></polygon>
  <path class="cls-4" d="m23.12,8.7c0,2.43-1.97,4.39-4.39,4.39s-4.39-1.97-4.39-4.39,1.97-4.39,4.39-4.39,4.39,1.97,4.39,4.39h0Zm-5.06,8.78c0,2.43-1.97,4.39-4.39,4.39s-4.39-1.97-4.39-4.39,1.97-4.39,4.39-4.39,4.39,1.97,4.39,4.39h0Zm10.14,0c0,2.43-1.97,4.39-4.39,4.39s-4.39-1.97-4.39-4.39,1.97-4.39,4.39-4.39,4.39,1.97,4.39,4.39h0Zm5.07,8.79c0,2.43-1.97,4.39-4.39,4.39s-4.39-1.97-4.39-4.39,1.97-4.39,4.39-4.39,4.39,1.97,4.39,4.39h0Zm-10.14,0c0,2.43-1.97,4.39-4.39,4.39s-4.39-1.97-4.39-4.39,1.97-4.39,4.39-4.39,4.39,1.97,4.39,4.39h0Zm-10.14,0c0,2.43-1.97,4.39-4.39,4.39s-4.39-1.97-4.39-4.39,1.97-4.39,4.39-4.39,4.39,1.97,4.39,4.39h0Z"></path>
  <polygon class="cls-1" points="1.17 50.31 36.31 50.31 36.31 35.16 1.17 35.16 1.17 50.31 1.17 50.31"></polygon>
  <g>
    <polygon class="cls-3" points="4.74 38.08 6.81 38.08 6.81 41.58 10.82 41.58 10.82 38.08 12.89 38.08 12.89 47.46 10.82 47.46 10.82 43.41 6.81 43.41 6.81 47.46 4.74 47.46 4.74 38.08 4.74 38.08"></polygon>
    <path class="cls-3" d="m22.66,43.84c0,2.21-1.35,3.86-3.95,3.86s-3.96-1.64-3.96-3.86v-5.76h2.07v5.68c0,1.15.79,2.03,1.89,2.03s1.88-.87,1.88-2.03v-5.68h2.07v5.76h0Z"></path>
    <path class="cls-3" d="m33.09,46.8c-1.22.64-2.56.9-3.94.9-2.93,0-5.06-1.92-5.06-4.93s2.13-4.93,5.06-4.93c1.48,0,2.8.33,3.74,1.21l-1.46,1.59c-.56-.58-1.23-.89-2.28-.89-1.76,0-2.92,1.27-2.92,3.02s1.15,3.02,2.92,3.02c.9,0,1.56-.25,1.95-.46v-1.52h-1.68v-1.91h3.67v4.9h0Z"></path>
  </g>
</svg>
